<svg width="70" height="70" viewBox="0 0 70 70" fill="none" xmlns="http://www.w3.org/2000/svg">
<path d="M42.382 36.3682L19.3053 59.4419C18.145 60.6022 16.5713 61.2541 14.9303 61.2541C13.2894 61.2541 11.7157 60.6022 10.5553 59.4419C9.39503 58.2816 8.74316 56.7078 8.74316 55.0669C8.74316 53.426 9.39503 51.8522 10.5553 50.6919L33.632 27.6152" stroke="#FBCA78" stroke-width="5" stroke-linecap="round" stroke-linejoin="round"/>
<path d="M45.7504 12.5823C41.347 9.83911 36.4088 8.06732 31.2659 7.38528C26.123 6.70324 20.8937 7.12667 15.9275 8.62727C15.4854 8.90872 15.1273 9.30412 14.8908 9.77186C14.6544 10.2396 14.5483 10.7624 14.5839 11.2853C14.6194 11.8082 14.7951 12.3119 15.0926 12.7434C15.3902 13.1748 15.7985 13.5182 16.2746 13.7373C22.917 16.0059 29.1422 19.3491 34.7021 23.6335" stroke="#FBCA78" stroke-width="5" stroke-linecap="round" stroke-linejoin="round"/>
<path d="M51.6248 10.7918C51.0796 10.2573 50.3465 9.95801 49.5831 9.95801C48.8197 9.95801 48.0866 10.2573 47.5414 10.7918L34.1248 24.2084C33.5904 24.7536 33.291 25.4866 33.291 26.2501C33.291 27.0135 33.5904 27.7465 34.1248 28.2918L41.7081 35.8751C42.2533 36.4095 42.9863 36.7088 43.7498 36.7088C44.5132 36.7088 45.2462 36.4095 45.7914 35.8751L59.2081 22.4584C59.7425 21.9132 60.0418 21.1802 60.0418 20.4168C60.0418 19.6533 59.7425 18.9203 59.2081 18.3751L51.6248 10.7918Z" stroke="#FBCA78" stroke-width="5" stroke-linecap="round" stroke-linejoin="round"/>
<path d="M57.4175 24.249C60.1605 28.6525 61.9321 33.5907 62.6142 38.7336C63.2962 43.8765 62.8729 49.1057 61.3725 54.0719C61.0908 54.5133 60.6955 54.8707 60.2281 55.1067C59.7607 55.3426 59.2384 55.4484 58.716 55.4129C58.1936 55.3774 57.6904 55.2019 57.2592 54.9049C56.828 54.6079 56.4847 54.2003 56.2654 53.7249C53.997 47.0814 50.6539 40.8552 46.3691 35.2944" stroke="#FBCA78" stroke-width="5" stroke-linecap="round" stroke-linejoin="round"/>
</svg>
