<svg width="88" height="70" viewBox="0 0 88 70" fill="none" xmlns="http://www.w3.org/2000/svg">
<path d="M71.9604 9.5431C71.9368 9.49891 71.8978 9.46487 71.8507 9.44739C66.6239 7.05729 61.1083 5.35234 55.4417 4.37513C55.3908 4.36583 55.3383 4.3727 55.2915 4.39478C55.2447 4.41686 55.2061 4.45303 55.1811 4.49817C54.4295 5.85756 53.7472 7.25386 53.1368 8.68177C47.0253 7.75737 40.8088 7.75737 34.6973 8.68177C34.0845 7.25033 33.3929 5.85368 32.6256 4.49817C32.5992 4.45437 32.5603 4.41934 32.5139 4.39745C32.4676 4.37556 32.4157 4.36779 32.3649 4.37513C26.6885 5.34793 21.1633 7.05302 15.9286 9.44739C15.8827 9.46678 15.8442 9.50032 15.8188 9.5431C5.36429 25.1154 2.49684 40.2911 3.89626 55.2892C3.90023 55.3269 3.91203 55.3634 3.93093 55.3964C3.94983 55.4294 3.9754 55.458 4.00602 55.4806C10.0958 59.9692 16.9061 63.3948 24.1468 65.6115C24.1988 65.6275 24.2546 65.6269 24.3063 65.6097C24.3579 65.5926 24.4029 65.5597 24.4349 65.5158C25.9884 63.4082 27.3651 61.1767 28.5508 58.8439C28.5666 58.8118 28.5756 58.7768 28.5772 58.7411C28.5788 58.7053 28.5729 58.6697 28.5601 58.6363C28.5472 58.6029 28.5275 58.5726 28.5023 58.5471C28.4771 58.5217 28.4469 58.5017 28.4136 58.4884C26.2384 57.6578 24.1326 56.6566 22.1162 55.4943C22.0806 55.4725 22.0507 55.4426 22.0291 55.4069C22.0076 55.3713 21.9949 55.331 21.9922 55.2894C21.9895 55.2479 21.9969 55.2063 22.0137 55.1682C22.0305 55.1301 22.0562 55.0966 22.0888 55.0704C22.5141 54.756 22.9394 54.4279 23.3373 54.0997C23.3724 54.069 23.4155 54.0489 23.4617 54.0416C23.5078 54.0344 23.5551 54.0403 23.598 54.0587C36.7965 60.0607 51.0925 60.0607 64.1401 54.0587C64.1818 54.0384 64.2283 54.0302 64.2744 54.0351C64.3205 54.0399 64.3643 54.0576 64.4008 54.0861C64.7987 54.4142 65.224 54.756 65.6493 55.0704C65.6818 55.0966 65.7076 55.1301 65.7244 55.1682C65.7412 55.2063 65.7486 55.2479 65.7459 55.2894C65.7432 55.331 65.7305 55.3713 65.7089 55.4069C65.6874 55.4426 65.6575 55.4725 65.6219 55.4943C63.6107 56.6626 61.504 57.6597 59.3244 58.4747C59.2911 58.488 59.2609 58.508 59.2358 58.5335C59.2106 58.5589 59.1909 58.5893 59.178 58.6226C59.1651 58.656 59.1593 58.6917 59.1609 58.7274C59.1625 58.7631 59.1715 58.7981 59.1872 58.8302C60.3937 61.1514 61.7694 63.3814 63.3032 65.5021C63.3352 65.546 63.3802 65.5789 63.4318 65.5961C63.4835 65.6132 63.5393 65.6138 63.5913 65.5978C70.8529 63.3911 77.6829 59.9649 83.7869 55.4669C83.8182 55.445 83.8442 55.4165 83.8632 55.3834C83.8822 55.3503 83.8936 55.3135 83.8967 55.2755C85.5705 37.9532 81.0704 22.9005 71.9604 9.5431ZM30.5265 46.1564C26.5477 46.1564 23.2824 42.5197 23.2824 38.0626C23.2824 33.6056 26.4929 29.9552 30.5265 29.9552C34.6013 29.9552 37.8392 33.6193 37.7706 38.049C37.7706 42.5197 34.5601 46.1564 30.5265 46.1564ZM57.3351 46.1564C53.3563 46.1564 50.091 42.5197 50.091 38.0626C50.091 33.6056 53.2877 29.9552 57.3351 29.9552C61.4099 29.9552 64.6478 33.6193 64.5792 38.049C64.5792 42.5197 61.3961 46.1564 57.3351 46.1564Z" fill="#7289DA"/>
</svg>
