<svg width="70" height="70" viewBox="0 0 70 70" fill="none" xmlns="http://www.w3.org/2000/svg">
<path d="M29.1671 5.83325V27.787C29.168 28.6941 28.9572 29.5889 28.5517 30.4003L13.7671 59.9374C13.5423 60.3836 13.4358 60.8801 13.4579 61.3793C13.4801 61.8785 13.6301 62.3636 13.8936 62.7881C14.1571 63.2127 14.5253 63.5624 14.9628 63.8038C15.4003 64.0451 15.8925 64.1701 16.3921 64.1666H53.6088C54.1084 64.1701 54.6006 64.0451 55.0381 63.8038C55.4756 63.5624 55.8438 63.2127 56.1073 62.7881C56.3708 62.3636 56.5208 61.8785 56.5429 61.3793C56.5651 60.8801 56.4586 60.3836 56.2338 59.9374L41.4492 30.4003C41.0437 29.5889 40.8329 28.6941 40.8338 27.787V5.83325" stroke="#2AB595" stroke-width="6" stroke-linecap="round" stroke-linejoin="round"/>
<path d="M24.792 5.83325H45.2087" stroke="#2AB595" stroke-width="6" stroke-linecap="round" stroke-linejoin="round"/>
<path d="M20.417 46.6667H49.5837" stroke="#2AB595" stroke-width="6" stroke-linecap="round" stroke-linejoin="round"/>
</svg>
