<svg width="80" height="80" viewBox="0 0 80 80" fill="none" xmlns="http://www.w3.org/2000/svg">
<path d="M33.333 43.3334C34.7645 45.2471 36.5909 46.8307 38.6882 47.9765C40.7855 49.1224 43.1047 49.8038 45.4885 49.9745C47.8723 50.1452 50.265 49.8013 52.5042 48.966C54.7434 48.1307 56.7767 46.8236 58.4663 45.1334L68.4663 35.1334C71.5023 31.99 73.1822 27.78 73.1442 23.41C73.1063 19.0401 71.3535 14.8599 68.2633 11.7697C65.1732 8.6796 60.993 6.92679 56.623 6.88881C52.2531 6.85084 48.043 8.53075 44.8997 11.5667L39.1663 17.2667" stroke="white" stroke-width="7" stroke-linecap="round" stroke-linejoin="round"/>
<path d="M46.6664 36.6666C45.2348 34.7528 43.4085 33.1693 41.3112 32.0235C39.2139 30.8776 36.8947 30.1962 34.5109 30.0255C32.127 29.8548 29.7344 30.1987 27.4952 31.034C25.256 31.8693 23.2226 33.1764 21.533 34.8666L11.533 44.8666C8.49705 48.01 6.81715 52.22 6.85512 56.59C6.8931 60.9599 8.64591 65.1401 11.736 68.2303C14.8262 71.3204 19.0064 73.0732 23.3763 73.1112C27.7463 73.1492 31.9563 71.4692 35.0997 68.4333L40.7997 62.7333" stroke="white" stroke-width="7" stroke-linecap="round" stroke-linejoin="round"/>
</svg>
